<svg width="118" height="30" viewBox="0 0 118 30" fill="none" xmlns="http://www.w3.org/2000/svg">
<rect width="118" height="30" rx="10" fill="#E6FFFB"/>
<path d="M20.404 21L15.346 8.4H16.876L22.006 21H20.404ZM10.162 21L15.292 8.4H16.84L11.782 21H10.162ZM12.592 17.418V16.05H19.594V17.418H12.592ZM23.5316 24.6V12H24.8816L24.9716 13.656V24.6H23.5316ZM28.0136 21.216C27.2576 21.216 26.5916 21.018 26.0156 20.622C25.4516 20.226 25.0136 19.674 24.7016 18.966C24.3896 18.246 24.2336 17.424 24.2336 16.5C24.2336 15.564 24.3896 14.742 24.7016 14.034C25.0136 13.326 25.4516 12.774 26.0156 12.378C26.5916 11.982 27.2576 11.784 28.0136 11.784C28.8176 11.784 29.5256 11.982 30.1376 12.378C30.7496 12.774 31.2236 13.326 31.5596 14.034C31.9076 14.742 32.0816 15.564 32.0816 16.5C32.0816 17.424 31.9076 18.246 31.5596 18.966C31.2236 19.674 30.7496 20.226 30.1376 20.622C29.5256 21.018 28.8176 21.216 28.0136 21.216ZM27.6896 19.902C28.2536 19.902 28.7516 19.758 29.1836 19.47C29.6276 19.182 29.9756 18.78 30.2276 18.264C30.4916 17.748 30.6236 17.16 30.6236 16.5C30.6236 15.84 30.4976 15.252 30.2456 14.736C30.0056 14.22 29.6636 13.818 29.2196 13.53C28.7756 13.242 28.2716 13.098 27.7076 13.098C27.1796 13.098 26.7056 13.242 26.2856 13.53C25.8776 13.818 25.5536 14.22 25.3136 14.736C25.0856 15.252 24.9716 15.84 24.9716 16.5C24.9716 17.16 25.0856 17.748 25.3136 18.264C25.5536 18.78 25.8776 19.182 26.2856 19.47C26.6936 19.758 27.1616 19.902 27.6896 19.902ZM34.1664 24.6V12H35.5164L35.6064 13.656V24.6H34.1664ZM38.6484 21.216C37.8924 21.216 37.2264 21.018 36.6504 20.622C36.0864 20.226 35.6484 19.674 35.3364 18.966C35.0244 18.246 34.8684 17.424 34.8684 16.5C34.8684 15.564 35.0244 14.742 35.3364 14.034C35.6484 13.326 36.0864 12.774 36.6504 12.378C37.2264 11.982 37.8924 11.784 38.6484 11.784C39.4524 11.784 40.1604 11.982 40.7724 12.378C41.3844 12.774 41.8584 13.326 42.1944 14.034C42.5424 14.742 42.7164 15.564 42.7164 16.5C42.7164 17.424 42.5424 18.246 42.1944 18.966C41.8584 19.674 41.3844 20.226 40.7724 20.622C40.1604 21.018 39.4524 21.216 38.6484 21.216ZM38.3244 19.902C38.8884 19.902 39.3864 19.758 39.8184 19.47C40.2624 19.182 40.6104 18.78 40.8624 18.264C41.1264 17.748 41.2584 17.16 41.2584 16.5C41.2584 15.84 41.1324 15.252 40.8804 14.736C40.6404 14.22 40.2984 13.818 39.8544 13.53C39.4104 13.242 38.9064 13.098 38.3424 13.098C37.8144 13.098 37.3404 13.242 36.9204 13.53C36.5124 13.818 36.1884 14.22 35.9484 14.736C35.7204 15.252 35.6064 15.84 35.6064 16.5C35.6064 17.16 35.7204 17.748 35.9484 18.264C36.1884 18.78 36.5124 19.182 36.9204 19.47C37.3284 19.758 37.7964 19.902 38.3244 19.902ZM45.5032 16.122C45.5032 15.15 45.6892 14.364 46.0612 13.764C46.4332 13.152 46.9072 12.702 47.4832 12.414C48.0712 12.114 48.6892 11.964 49.3372 11.964V13.314C48.8092 13.314 48.2992 13.404 47.8072 13.584C47.3272 13.752 46.9312 14.034 46.6192 14.43C46.3072 14.826 46.1512 15.366 46.1512 16.05L45.5032 16.122ZM44.7112 21V12H46.1512V21H44.7112ZM54.7712 21.216C53.8952 21.216 53.1152 21.018 52.4312 20.622C51.7592 20.214 51.2312 19.656 50.8472 18.948C50.4632 18.24 50.2712 17.424 50.2712 16.5C50.2712 15.576 50.4572 14.76 50.8292 14.052C51.2132 13.344 51.7412 12.792 52.4132 12.396C53.0972 11.988 53.8712 11.784 54.7352 11.784C55.6232 11.784 56.4032 11.988 57.0752 12.396C57.7592 12.792 58.2872 13.344 58.6592 14.052C59.0432 14.76 59.2352 15.576 59.2352 16.5C59.2352 17.424 59.0432 18.24 58.6592 18.948C58.2872 19.656 57.7652 20.214 57.0932 20.622C56.4212 21.018 55.6472 21.216 54.7712 21.216ZM54.7712 19.884C55.3712 19.884 55.8932 19.74 56.3372 19.452C56.7812 19.164 57.1292 18.768 57.3812 18.264C57.6452 17.76 57.7772 17.172 57.7772 16.5C57.7772 15.828 57.6452 15.24 57.3812 14.736C57.1292 14.232 56.7752 13.836 56.3192 13.548C55.8632 13.26 55.3352 13.116 54.7352 13.116C54.1472 13.116 53.6252 13.26 53.1692 13.548C52.7252 13.836 52.3712 14.232 52.1072 14.736C51.8552 15.24 51.7292 15.828 51.7292 16.5C51.7292 17.16 51.8552 17.748 52.1072 18.264C52.3712 18.768 52.7312 19.164 53.1872 19.452C53.6552 19.74 54.1832 19.884 54.7712 19.884ZM63.7601 21L67.4321 12H68.9441L65.1821 21H63.7601ZM63.6701 21L59.9081 12H61.4021L65.0741 21H63.6701ZM74.0887 21.216C73.2127 21.216 72.4387 21.018 71.7667 20.622C71.0947 20.214 70.5667 19.656 70.1827 18.948C69.8107 18.24 69.6247 17.424 69.6247 16.5C69.6247 15.576 69.8107 14.76 70.1827 14.052C70.5667 13.344 71.0887 12.792 71.7487 12.396C72.4207 11.988 73.1887 11.784 74.0527 11.784C74.8927 11.784 75.6187 11.994 76.2307 12.414C76.8427 12.822 77.3167 13.398 77.6527 14.142C77.9887 14.886 78.1567 15.762 78.1567 16.77H70.7227L71.0827 16.464C71.0827 17.184 71.2087 17.802 71.4607 18.318C71.7247 18.834 72.0907 19.23 72.5587 19.506C73.0267 19.77 73.5607 19.902 74.1607 19.902C74.7967 19.902 75.3307 19.752 75.7627 19.452C76.2067 19.152 76.5487 18.756 76.7887 18.264L78.0307 18.894C77.8027 19.362 77.4967 19.77 77.1127 20.118C76.7407 20.466 76.2967 20.736 75.7807 20.928C75.2767 21.12 74.7127 21.216 74.0887 21.216ZM71.1727 15.852L70.7947 15.564H77.0047L76.6267 15.87C76.6267 15.294 76.5127 14.796 76.2847 14.376C76.0567 13.956 75.7507 13.632 75.3667 13.404C74.9827 13.176 74.5387 13.062 74.0347 13.062C73.5427 13.062 73.0747 13.176 72.6307 13.404C72.1987 13.632 71.8447 13.956 71.5687 14.376C71.3047 14.784 71.1727 15.276 71.1727 15.852ZM86.6329 21L86.5609 19.326V8.4H88.0009V21H86.6329ZM83.5189 21.216C82.7149 21.216 82.0069 21.018 81.3949 20.622C80.7829 20.226 80.3029 19.674 79.9549 18.966C79.6189 18.246 79.4509 17.424 79.4509 16.5C79.4509 15.564 79.6189 14.742 79.9549 14.034C80.3029 13.326 80.7829 12.774 81.3949 12.378C82.0069 11.982 82.7149 11.784 83.5189 11.784C84.2749 11.784 84.9349 11.982 85.4989 12.378C86.0749 12.774 86.5189 13.326 86.8309 14.034C87.1429 14.742 87.2989 15.564 87.2989 16.5C87.2989 17.424 87.1429 18.246 86.8309 18.966C86.5189 19.674 86.0749 20.226 85.4989 20.622C84.9349 21.018 84.2749 21.216 83.5189 21.216ZM83.8429 19.902C84.3709 19.902 84.8389 19.758 85.2469 19.47C85.6549 19.182 85.9729 18.78 86.2009 18.264C86.4409 17.748 86.5609 17.16 86.5609 16.5C86.5609 15.84 86.4409 15.252 86.2009 14.736C85.9729 14.22 85.6549 13.818 85.2469 13.53C84.8389 13.242 84.3649 13.098 83.8249 13.098C83.2609 13.098 82.7569 13.242 82.3129 13.53C81.8809 13.818 81.5389 14.22 81.2869 14.736C81.0349 15.252 80.9089 15.84 80.9089 16.5C80.9089 17.16 81.0349 17.748 81.2869 18.264C81.5389 18.78 81.8869 19.182 82.3309 19.47C82.7749 19.758 83.2789 19.902 83.8429 19.902Z" fill="#14AE5C"/>
<circle cx="99.5" cy="15" r="3.5" fill="#14AE5C"/>
</svg>
