<svg width="141" height="50" viewBox="0 0 141 50" fill="none" xmlns="http://www.w3.org/2000/svg">
<rect width="141" height="50" rx="10" fill="#E6E6E6"/>
<path d="M22 13C23.5759 13 25.1363 13.3104 26.5922 13.9134C28.0481 14.5165 29.371 15.4004 30.4853 16.5147C31.5996 17.629 32.4835 18.9519 33.0866 20.4078C33.6896 21.8637 34 23.4241 34 25L22 25V13Z" fill="#1A1A1A"/>
<path d="M55.56 32L49.94 18H51.64L57.34 32H55.56ZM44.18 32L49.88 18H51.6L45.98 32H44.18ZM46.88 28.02V26.5H54.66V28.02H46.88ZM62.4352 32.24C61.7018 32.24 61.0618 32.1333 60.5152 31.92C59.9685 31.6933 59.5085 31.4 59.1352 31.04C58.7752 30.68 58.5152 30.2867 58.3552 29.86L59.7552 29.28C59.9818 29.7333 60.3218 30.1 60.7752 30.38C61.2285 30.66 61.7285 30.8 62.2752 30.8C62.9018 30.8 63.4285 30.68 63.8552 30.44C64.2818 30.1867 64.4952 29.8333 64.4952 29.38C64.4952 28.9667 64.3352 28.6333 64.0152 28.38C63.7085 28.1267 63.2485 27.92 62.6352 27.76L61.6752 27.5C60.7685 27.26 60.0618 26.9 59.5552 26.42C59.0485 25.9267 58.7952 25.3733 58.7952 24.76C58.7952 23.8133 59.1018 23.08 59.7152 22.56C60.3418 22.0267 61.2685 21.76 62.4952 21.76C63.0818 21.76 63.6152 21.8467 64.0952 22.02C64.5752 22.1933 64.9885 22.44 65.3352 22.76C65.6818 23.0667 65.9352 23.4333 66.0952 23.86L64.6952 24.48C64.5218 24.0267 64.2352 23.7 63.8352 23.5C63.4352 23.3 62.9485 23.2 62.3752 23.2C61.7618 23.2 61.2818 23.3333 60.9352 23.6C60.5885 23.8533 60.4152 24.2133 60.4152 24.68C60.4152 24.9467 60.5552 25.2 60.8352 25.44C61.1285 25.6667 61.5552 25.8533 62.1152 26L63.1152 26.26C63.7685 26.42 64.3152 26.66 64.7552 26.98C65.1952 27.2867 65.5285 27.64 65.7552 28.04C65.9818 28.44 66.0952 28.8667 66.0952 29.32C66.0952 29.92 65.9352 30.44 65.6152 30.88C65.2952 31.32 64.8618 31.66 64.3152 31.9C63.7685 32.1267 63.1418 32.24 62.4352 32.24ZM71.7516 32.24C71.0182 32.24 70.3782 32.1333 69.8316 31.92C69.2849 31.6933 68.8249 31.4 68.4516 31.04C68.0916 30.68 67.8316 30.2867 67.6716 29.86L69.0716 29.28C69.2982 29.7333 69.6382 30.1 70.0916 30.38C70.5449 30.66 71.0449 30.8 71.5916 30.8C72.2182 30.8 72.7449 30.68 73.1716 30.44C73.5982 30.1867 73.8116 29.8333 73.8116 29.38C73.8116 28.9667 73.6516 28.6333 73.3316 28.38C73.0249 28.1267 72.5649 27.92 71.9516 27.76L70.9916 27.5C70.0849 27.26 69.3782 26.9 68.8716 26.42C68.3649 25.9267 68.1116 25.3733 68.1116 24.76C68.1116 23.8133 68.4182 23.08 69.0316 22.56C69.6582 22.0267 70.5849 21.76 71.8116 21.76C72.3982 21.76 72.9316 21.8467 73.4116 22.02C73.8916 22.1933 74.3049 22.44 74.6516 22.76C74.9982 23.0667 75.2516 23.4333 75.4116 23.86L74.0116 24.48C73.8382 24.0267 73.5516 23.7 73.1516 23.5C72.7516 23.3 72.2649 23.2 71.6916 23.2C71.0782 23.2 70.5982 23.3333 70.2516 23.6C69.9049 23.8533 69.7316 24.2133 69.7316 24.68C69.7316 24.9467 69.8716 25.2 70.1516 25.44C70.4449 25.6667 70.8716 25.8533 71.4316 26L72.4316 26.26C73.0849 26.42 73.6316 26.66 74.0716 26.98C74.5116 27.2867 74.8449 27.64 75.0716 28.04C75.2982 28.44 75.4116 28.8667 75.4116 29.32C75.4116 29.92 75.2516 30.44 74.9316 30.88C74.6116 31.32 74.1782 31.66 73.6316 31.9C73.0849 32.1267 72.4582 32.24 71.7516 32.24ZM77.668 32V22H79.268V32H77.668ZM78.488 19.68C78.2213 19.68 77.988 19.58 77.788 19.38C77.588 19.18 77.488 18.9467 77.488 18.68C77.488 18.4 77.588 18.1667 77.788 17.98C77.988 17.78 78.2213 17.68 78.488 17.68C78.768 17.68 79.0013 17.78 79.188 17.98C79.388 18.1667 79.488 18.4 79.488 18.68C79.488 18.9467 79.388 19.18 79.188 19.38C79.0013 19.58 78.768 19.68 78.488 19.68ZM86.2164 36.24C85.5764 36.24 84.9897 36.1733 84.4564 36.04C83.9364 35.92 83.4897 35.78 83.1164 35.62C82.7564 35.4733 82.4964 35.3467 82.3364 35.24L82.9364 33.94C83.1097 34.0333 83.3564 34.1467 83.6764 34.28C83.9964 34.4267 84.3697 34.5467 84.7964 34.64C85.2364 34.7467 85.7031 34.8 86.1964 34.8C86.8364 34.8 87.4097 34.6667 87.9164 34.4C88.4364 34.1467 88.8364 33.74 89.1164 33.18C89.4097 32.6333 89.5564 31.9267 89.5564 31.06V22H91.1564V31.04C91.1564 32.1867 90.9431 33.1467 90.5164 33.92C90.0897 34.6933 89.5031 35.2733 88.7564 35.66C88.0097 36.0467 87.1631 36.24 86.2164 36.24ZM86.1564 31.92C85.2631 31.92 84.4764 31.7067 83.7964 31.28C83.1164 30.8533 82.5831 30.26 82.1964 29.5C81.8231 28.7267 81.6364 27.8467 81.6364 26.86C81.6364 25.8467 81.8231 24.96 82.1964 24.2C82.5831 23.4267 83.1164 22.8267 83.7964 22.4C84.4764 21.9733 85.2631 21.76 86.1564 21.76C86.9964 21.76 87.7297 21.9733 88.3564 22.4C88.9831 22.8267 89.4697 23.4267 89.8164 24.2C90.1764 24.96 90.3564 25.8467 90.3564 26.86C90.3564 27.86 90.1764 28.74 89.8164 29.5C89.4697 30.26 88.9831 30.8533 88.3564 31.28C87.7297 31.7067 86.9964 31.92 86.1564 31.92ZM86.5364 30.54C87.1231 30.54 87.6431 30.38 88.0964 30.06C88.5497 29.74 88.9031 29.3067 89.1564 28.76C89.4097 28.2 89.5364 27.5533 89.5364 26.82C89.5364 26.1133 89.4031 25.4867 89.1364 24.94C88.8831 24.38 88.5297 23.9467 88.0764 23.64C87.6364 23.32 87.1164 23.16 86.5164 23.16C85.8897 23.16 85.3297 23.32 84.8364 23.64C84.3564 23.9467 83.9764 24.38 83.6964 24.94C83.4297 25.4867 83.2964 26.1133 83.2964 26.82C83.2964 27.5533 83.4364 28.2 83.7164 28.76C83.9964 29.3067 84.3764 29.74 84.8564 30.06C85.3497 30.38 85.9097 30.54 86.5364 30.54ZM93.9547 32V22H95.4547L95.5547 23.84V32H93.9547ZM100.975 32V26.88H102.575V32H100.975ZM100.975 26.88C100.975 25.8933 100.861 25.14 100.635 24.62C100.408 24.1 100.095 23.7467 99.6947 23.56C99.2947 23.36 98.8414 23.26 98.3347 23.26C97.4547 23.26 96.768 23.5733 96.2747 24.2C95.7947 24.8133 95.5547 25.6867 95.5547 26.82H94.7747C94.7747 25.7667 94.928 24.86 95.2347 24.1C95.5414 23.34 95.988 22.76 96.5747 22.36C97.1614 21.96 97.868 21.76 98.6947 21.76C99.4814 21.76 100.161 21.92 100.735 22.24C101.321 22.5467 101.775 23.04 102.095 23.72C102.428 24.4 102.588 25.2933 102.575 26.4V26.88H100.975ZM109.487 32.24C108.514 32.24 107.654 32.02 106.907 31.58C106.16 31.1267 105.574 30.5067 105.147 29.72C104.734 28.9333 104.527 28.0267 104.527 27C104.527 25.9733 104.734 25.0667 105.147 24.28C105.574 23.4933 106.154 22.88 106.887 22.44C107.634 21.9867 108.487 21.76 109.447 21.76C110.38 21.76 111.187 21.9933 111.867 22.46C112.547 22.9133 113.074 23.5533 113.447 24.38C113.82 25.2067 114.007 26.18 114.007 27.3H105.747L106.147 26.96C106.147 27.76 106.287 28.4467 106.567 29.02C106.86 29.5933 107.267 30.0333 107.787 30.34C108.307 30.6333 108.9 30.78 109.567 30.78C110.274 30.78 110.867 30.6133 111.347 30.28C111.84 29.9467 112.22 29.5067 112.487 28.96L113.867 29.66C113.614 30.18 113.274 30.6333 112.847 31.02C112.434 31.4067 111.94 31.7067 111.367 31.92C110.807 32.1333 110.18 32.24 109.487 32.24ZM106.247 26.28L105.827 25.96H112.727L112.307 26.3C112.307 25.66 112.18 25.1067 111.927 24.64C111.674 24.1733 111.334 23.8133 110.907 23.56C110.48 23.3067 109.987 23.18 109.427 23.18C108.88 23.18 108.36 23.3067 107.867 23.56C107.387 23.8133 106.994 24.1733 106.687 24.64C106.394 25.0933 106.247 25.64 106.247 26.28ZM123.425 32L123.345 30.14V18H124.945V32H123.425ZM119.965 32.24C119.072 32.24 118.285 32.02 117.605 31.58C116.925 31.14 116.392 30.5267 116.005 29.74C115.632 28.94 115.445 28.0267 115.445 27C115.445 25.96 115.632 25.0467 116.005 24.26C116.392 23.4733 116.925 22.86 117.605 22.42C118.285 21.98 119.072 21.76 119.965 21.76C120.805 21.76 121.538 21.98 122.165 22.42C122.805 22.86 123.298 23.4733 123.645 24.26C123.992 25.0467 124.165 25.96 124.165 27C124.165 28.0267 123.992 28.94 123.645 29.74C123.298 30.5267 122.805 31.14 122.165 31.58C121.538 32.02 120.805 32.24 119.965 32.24ZM120.325 30.78C120.912 30.78 121.432 30.62 121.885 30.3C122.338 29.98 122.692 29.5333 122.945 28.96C123.212 28.3867 123.345 27.7333 123.345 27C123.345 26.2667 123.212 25.6133 122.945 25.04C122.692 24.4667 122.338 24.02 121.885 23.7C121.432 23.38 120.905 23.22 120.305 23.22C119.678 23.22 119.118 23.38 118.625 23.7C118.145 24.02 117.765 24.4667 117.485 25.04C117.205 25.6133 117.065 26.2667 117.065 27C117.065 27.7333 117.205 28.3867 117.485 28.96C117.765 29.5333 118.152 29.98 118.645 30.3C119.138 30.62 119.698 30.78 120.325 30.78Z" fill="#1A1A1A"/>
</svg>
