<svg width="24" height="24" viewBox="0 0 24 24" fill="none" xmlns="http://www.w3.org/2000/svg">
<path d="M15.0909 15.5297V17.2629L16.0727 18.3027M19.4545 9.16216V7.10811C19.4545 5.97369 18.4777 5.05405 17.2727 5.05405H14M7.45455 21.4865H4.18182C2.97683 21.4865 2 20.5669 2 19.4324V11.2162M14 3V5.05405M14 7.10811V5.05405M7.45455 3V5.05405M7.45455 7.10811V5.05405M14 5.05405H7.45455M7.45455 5.05405H4.18182C2.97683 5.05405 2 5.97369 2 7.10811V11.2162M7.45455 11.2162H2M20 17.3784C20 19.9308 17.8021 22 15.0909 22C12.3797 22 10.1818 19.9308 10.1818 17.3784C10.1818 14.8259 12.3797 12.7568 15.0909 12.7568C17.8021 12.7568 20 14.8259 20 17.3784Z" stroke="white" stroke-width="1.7" stroke-linecap="round" stroke-linejoin="round"/>
</svg>
