<svg width="108" height="30" viewBox="0 0 108 30" fill="none" xmlns="http://www.w3.org/2000/svg">
<rect width="108" height="30" rx="10" fill="#FFEDBA"/>
<path d="M11.674 21V8.4H15.778C16.594 8.4 17.314 8.568 17.938 8.904C18.574 9.24 19.066 9.708 19.414 10.308C19.774 10.908 19.954 11.604 19.954 12.396C19.954 13.164 19.792 13.848 19.468 14.448C19.144 15.048 18.7 15.522 18.136 15.87C17.572 16.206 16.918 16.374 16.174 16.374H13.204V21H11.674ZM13.204 14.988H16.174C16.834 14.988 17.374 14.748 17.794 14.268C18.226 13.776 18.442 13.152 18.442 12.396C18.442 11.616 18.19 10.986 17.686 10.506C17.182 10.026 16.54 9.786 15.76 9.786H13.204V14.988ZM25.45 21.216C24.574 21.216 23.8 21.018 23.128 20.622C22.456 20.214 21.928 19.656 21.544 18.948C21.172 18.24 20.986 17.424 20.986 16.5C20.986 15.576 21.172 14.76 21.544 14.052C21.928 13.344 22.45 12.792 23.11 12.396C23.782 11.988 24.55 11.784 25.414 11.784C26.254 11.784 26.98 11.994 27.592 12.414C28.204 12.822 28.678 13.398 29.014 14.142C29.35 14.886 29.518 15.762 29.518 16.77H22.084L22.444 16.464C22.444 17.184 22.57 17.802 22.822 18.318C23.086 18.834 23.452 19.23 23.92 19.506C24.388 19.77 24.922 19.902 25.522 19.902C26.158 19.902 26.692 19.752 27.124 19.452C27.568 19.152 27.91 18.756 28.15 18.264L29.392 18.894C29.164 19.362 28.858 19.77 28.474 20.118C28.102 20.466 27.658 20.736 27.142 20.928C26.638 21.12 26.074 21.216 25.45 21.216ZM22.534 15.852L22.156 15.564H28.366L27.988 15.87C27.988 15.294 27.874 14.796 27.646 14.376C27.418 13.956 27.112 13.632 26.728 13.404C26.344 13.176 25.9 13.062 25.396 13.062C24.904 13.062 24.436 13.176 23.992 13.404C23.56 13.632 23.206 13.956 22.93 14.376C22.666 14.784 22.534 15.276 22.534 15.852ZM31.3342 21V12H32.6842L32.7742 13.656V21H31.3342ZM37.6522 21V16.392H39.0922V21H37.6522ZM37.6522 16.392C37.6522 15.504 37.5502 14.826 37.3462 14.358C37.1422 13.89 36.8602 13.572 36.5002 13.404C36.1402 13.224 35.7322 13.134 35.2762 13.134C34.4842 13.134 33.8662 13.416 33.4222 13.98C32.9902 14.532 32.7742 15.318 32.7742 16.338H32.0722C32.0722 15.39 32.2102 14.574 32.4862 13.89C32.7622 13.206 33.1642 12.684 33.6922 12.324C34.2202 11.964 34.8562 11.784 35.6002 11.784C36.3082 11.784 36.9202 11.928 37.4362 12.216C37.9642 12.492 38.3722 12.936 38.6602 13.548C38.9602 14.16 39.1042 14.964 39.0922 15.96V16.392H37.6522ZM48.0313 21L47.9593 19.326V8.4H49.3993V21H48.0313ZM44.9173 21.216C44.1133 21.216 43.4053 21.018 42.7933 20.622C42.1813 20.226 41.7013 19.674 41.3533 18.966C41.0173 18.246 40.8493 17.424 40.8493 16.5C40.8493 15.564 41.0173 14.742 41.3533 14.034C41.7013 13.326 42.1813 12.774 42.7933 12.378C43.4053 11.982 44.1133 11.784 44.9173 11.784C45.6733 11.784 46.3333 11.982 46.8973 12.378C47.4733 12.774 47.9173 13.326 48.2293 14.034C48.5413 14.742 48.6973 15.564 48.6973 16.5C48.6973 17.424 48.5413 18.246 48.2293 18.966C47.9173 19.674 47.4733 20.226 46.8973 20.622C46.3333 21.018 45.6733 21.216 44.9173 21.216ZM45.2413 19.902C45.7693 19.902 46.2373 19.758 46.6453 19.47C47.0533 19.182 47.3713 18.78 47.5993 18.264C47.8393 17.748 47.9593 17.16 47.9593 16.5C47.9593 15.84 47.8393 15.252 47.5993 14.736C47.3713 14.22 47.0533 13.818 46.6453 13.53C46.2373 13.242 45.7633 13.098 45.2233 13.098C44.6593 13.098 44.1553 13.242 43.7113 13.53C43.2793 13.818 42.9373 14.22 42.6853 14.736C42.4333 15.252 42.3073 15.84 42.3073 16.5C42.3073 17.16 42.4333 17.748 42.6853 18.264C42.9373 18.78 43.2853 19.182 43.7293 19.47C44.1733 19.758 44.6773 19.902 45.2413 19.902ZM52.0082 21V12H53.4482V21H52.0082ZM52.7462 9.912C52.5062 9.912 52.2962 9.822 52.1162 9.642C51.9362 9.462 51.8462 9.252 51.8462 9.012C51.8462 8.76 51.9362 8.55 52.1162 8.382C52.2962 8.202 52.5062 8.112 52.7462 8.112C52.9982 8.112 53.2082 8.202 53.3762 8.382C53.5562 8.55 53.6462 8.76 53.6462 9.012C53.6462 9.252 53.5562 9.462 53.3762 9.642C53.2082 9.822 52.9982 9.912 52.7462 9.912ZM56.1018 21V12H57.4518L57.5418 13.656V21H56.1018ZM62.4198 21V16.392H63.8598V21H62.4198ZM62.4198 16.392C62.4198 15.504 62.3178 14.826 62.1138 14.358C61.9098 13.89 61.6278 13.572 61.2678 13.404C60.9078 13.224 60.4998 13.134 60.0438 13.134C59.2518 13.134 58.6338 13.416 58.1898 13.98C57.7578 14.532 57.5418 15.318 57.5418 16.338H56.8398C56.8398 15.39 56.9778 14.574 57.2538 13.89C57.5298 13.206 57.9318 12.684 58.4598 12.324C58.9878 11.964 59.6238 11.784 60.3678 11.784C61.0758 11.784 61.6878 11.928 62.2038 12.216C62.7318 12.492 63.1398 12.936 63.4278 13.548C63.7278 14.16 63.8718 14.964 63.8598 15.96V16.392H62.4198ZM69.7389 24.816C69.1629 24.816 68.6349 24.756 68.1549 24.636C67.6869 24.528 67.2849 24.402 66.9489 24.258C66.6249 24.126 66.3909 24.012 66.2469 23.916L66.7869 22.746C66.9429 22.83 67.1649 22.932 67.4529 23.052C67.7409 23.184 68.0769 23.292 68.4609 23.376C68.8569 23.472 69.2769 23.52 69.7209 23.52C70.2969 23.52 70.8129 23.4 71.2689 23.16C71.7369 22.932 72.0969 22.566 72.3489 22.062C72.6129 21.57 72.7449 20.934 72.7449 20.154V12H74.1849V20.136C74.1849 21.168 73.9929 22.032 73.6089 22.728C73.2249 23.424 72.6969 23.946 72.0249 24.294C71.3529 24.642 70.5909 24.816 69.7389 24.816ZM69.6849 20.928C68.8809 20.928 68.1729 20.736 67.5609 20.352C66.9489 19.968 66.4689 19.434 66.1209 18.75C65.7849 18.054 65.6169 17.262 65.6169 16.374C65.6169 15.462 65.7849 14.664 66.1209 13.98C66.4689 13.284 66.9489 12.744 67.5609 12.36C68.1729 11.976 68.8809 11.784 69.6849 11.784C70.4409 11.784 71.1009 11.976 71.6649 12.36C72.2289 12.744 72.6669 13.284 72.9789 13.98C73.3029 14.664 73.4649 15.462 73.4649 16.374C73.4649 17.274 73.3029 18.066 72.9789 18.75C72.6669 19.434 72.2289 19.968 71.6649 20.352C71.1009 20.736 70.4409 20.928 69.6849 20.928ZM70.0269 19.686C70.5549 19.686 71.0229 19.542 71.4309 19.254C71.8389 18.966 72.1569 18.576 72.3849 18.084C72.6129 17.58 72.7269 16.998 72.7269 16.338C72.7269 15.702 72.6069 15.138 72.3669 14.646C72.1389 14.142 71.8209 13.752 71.4129 13.476C71.0169 13.188 70.5489 13.044 70.0089 13.044C69.4449 13.044 68.9409 13.188 68.4969 13.476C68.0649 13.752 67.7229 14.142 67.4709 14.646C67.2309 15.138 67.1109 15.702 67.1109 16.338C67.1109 16.998 67.2369 17.58 67.4889 18.084C67.7409 18.576 68.0829 18.966 68.5149 19.254C68.9589 19.542 69.4629 19.686 70.0269 19.686Z" fill="#DAA203"/>
<circle cx="85.5" cy="15" r="3.5" fill="#DAA203"/>
</svg>
