<svg width="154" height="50" viewBox="0 0 154 50" fill="none" xmlns="http://www.w3.org/2000/svg">
<rect width="154" height="50" rx="10" fill="#FFE8A6"/>
<path d="M18.5 13C21.1487 13 23.7231 13.8764 25.8217 15.4925C27.9202 17.1086 29.4252 19.3736 30.1018 21.9345C30.7785 24.4953 30.5888 27.2081 29.5625 29.6499C28.5361 32.0917 26.7307 34.1253 24.4277 35.4337C22.1246 36.7421 19.4534 37.2518 16.8304 36.8833C14.2074 36.5148 11.7801 35.2888 9.92676 33.3964C8.07343 31.504 6.89828 29.0517 6.5845 26.4216C6.27072 23.7915 6.83594 21.1315 8.19206 18.8562L18.5 25V13Z" fill="#F4B400"/>
<path d="M42.36 32V18H46.92C47.8267 18 48.6267 18.18 49.32 18.54C50.0267 18.9 50.5733 19.4 50.96 20.04C51.36 20.68 51.56 21.4133 51.56 22.24C51.56 23.0667 51.3467 23.8 50.92 24.44C50.4933 25.08 49.9133 25.5867 49.18 25.96C48.4467 26.32 47.62 26.5 46.7 26.5H44.06V32H42.36ZM50.26 32L46.9 26.26L48.24 25.38L52.12 32H50.26ZM44.06 24.94H47.16C47.6667 24.94 48.12 24.8267 48.52 24.6C48.92 24.36 49.24 24.04 49.48 23.64C49.7333 23.2267 49.86 22.76 49.86 22.24C49.86 21.44 49.58 20.7933 49.02 20.3C48.4733 19.7933 47.76 19.54 46.88 19.54H44.06V24.94ZM58.7995 32.24C57.8262 32.24 56.9662 32.02 56.2195 31.58C55.4729 31.1267 54.8862 30.5067 54.4595 29.72C54.0462 28.9333 53.8395 28.0267 53.8395 27C53.8395 25.9733 54.0462 25.0667 54.4595 24.28C54.8862 23.4933 55.4662 22.88 56.1995 22.44C56.9462 21.9867 57.7995 21.76 58.7595 21.76C59.6929 21.76 60.4995 21.9933 61.1795 22.46C61.8595 22.9133 62.3862 23.5533 62.7595 24.38C63.1329 25.2067 63.3195 26.18 63.3195 27.3H55.0595L55.4595 26.96C55.4595 27.76 55.5995 28.4467 55.8795 29.02C56.1729 29.5933 56.5795 30.0333 57.0995 30.34C57.6195 30.6333 58.2129 30.78 58.8795 30.78C59.5862 30.78 60.1795 30.6133 60.6595 30.28C61.1529 29.9467 61.5329 29.5067 61.7995 28.96L63.1795 29.66C62.9262 30.18 62.5862 30.6333 62.1595 31.02C61.7462 31.4067 61.2529 31.7067 60.6795 31.92C60.1195 32.1333 59.4929 32.24 58.7995 32.24ZM55.5595 26.28L55.1395 25.96H62.0395L61.6195 26.3C61.6195 25.66 61.4929 25.1067 61.2395 24.64C60.9862 24.1733 60.6462 23.8133 60.2195 23.56C59.7929 23.3067 59.2995 23.18 58.7395 23.18C58.1929 23.18 57.6729 23.3067 57.1795 23.56C56.6995 23.8133 56.3062 24.1733 55.9995 24.64C55.7062 25.0933 55.5595 25.64 55.5595 26.28ZM71.4975 32L71.4175 30.36V26.72C71.4175 25.9333 71.3308 25.2867 71.1575 24.78C70.9842 24.26 70.7108 23.8667 70.3375 23.6C69.9642 23.3333 69.4775 23.2 68.8775 23.2C68.3308 23.2 67.8575 23.3133 67.4575 23.54C67.0708 23.7533 66.7508 24.1 66.4975 24.58L65.0575 24.02C65.3108 23.5533 65.6175 23.1533 65.9775 22.82C66.3375 22.4733 66.7575 22.2133 67.2375 22.04C67.7175 21.8533 68.2642 21.76 68.8775 21.76C69.8108 21.76 70.5775 21.9467 71.1775 22.32C71.7908 22.68 72.2508 23.22 72.5575 23.94C72.8642 24.6467 73.0108 25.5267 72.9975 26.58L72.9775 32H71.4975ZM68.4975 32.24C67.3242 32.24 66.4042 31.9733 65.7375 31.44C65.0842 30.8933 64.7575 30.14 64.7575 29.18C64.7575 28.1667 65.0908 27.3933 65.7575 26.86C66.4375 26.3133 67.3842 26.04 68.5975 26.04H71.4575V27.38H68.9575C68.0242 27.38 67.3575 27.5333 66.9575 27.84C66.5708 28.1467 66.3775 28.5867 66.3775 29.16C66.3775 29.68 66.5708 30.0933 66.9575 30.4C67.3442 30.6933 67.8842 30.84 68.5775 30.84C69.1508 30.84 69.6508 30.72 70.0775 30.48C70.5042 30.2267 70.8308 29.8733 71.0575 29.42C71.2975 28.9533 71.4175 28.4067 71.4175 27.78H72.0975C72.0975 29.14 71.7908 30.2267 71.1775 31.04C70.5642 31.84 69.6708 32.24 68.4975 32.24ZM79.0328 32.24C78.2995 32.24 77.6595 32.1333 77.1128 31.92C76.5661 31.6933 76.1061 31.4 75.7328 31.04C75.3728 30.68 75.1128 30.2867 74.9528 29.86L76.3528 29.28C76.5795 29.7333 76.9195 30.1 77.3728 30.38C77.8261 30.66 78.3261 30.8 78.8728 30.8C79.4995 30.8 80.0261 30.68 80.4528 30.44C80.8795 30.1867 81.0928 29.8333 81.0928 29.38C81.0928 28.9667 80.9328 28.6333 80.6128 28.38C80.3061 28.1267 79.8461 27.92 79.2328 27.76L78.2728 27.5C77.3661 27.26 76.6595 26.9 76.1528 26.42C75.6461 25.9267 75.3928 25.3733 75.3928 24.76C75.3928 23.8133 75.6995 23.08 76.3128 22.56C76.9395 22.0267 77.8661 21.76 79.0928 21.76C79.6795 21.76 80.2128 21.8467 80.6928 22.02C81.1728 22.1933 81.5861 22.44 81.9328 22.76C82.2795 23.0667 82.5328 23.4333 82.6928 23.86L81.2928 24.48C81.1195 24.0267 80.8328 23.7 80.4328 23.5C80.0328 23.3 79.5461 23.2 78.9728 23.2C78.3595 23.2 77.8795 23.3333 77.5328 23.6C77.1861 23.8533 77.0128 24.2133 77.0128 24.68C77.0128 24.9467 77.1528 25.2 77.4328 25.44C77.7261 25.6667 78.1528 25.8533 78.7128 26L79.7128 26.26C80.3661 26.42 80.9128 26.66 81.3528 26.98C81.7928 27.2867 82.1261 27.64 82.3528 28.04C82.5795 28.44 82.6928 28.8667 82.6928 29.32C82.6928 29.92 82.5328 30.44 82.2128 30.88C81.8928 31.32 81.4595 31.66 80.9128 31.9C80.3661 32.1267 79.7395 32.24 79.0328 32.24ZM88.3492 32.24C87.6159 32.24 86.9759 32.1333 86.4292 31.92C85.8826 31.6933 85.4226 31.4 85.0492 31.04C84.6892 30.68 84.4292 30.2867 84.2692 29.86L85.6692 29.28C85.8959 29.7333 86.2359 30.1 86.6892 30.38C87.1426 30.66 87.6426 30.8 88.1892 30.8C88.8159 30.8 89.3426 30.68 89.7692 30.44C90.1959 30.1867 90.4092 29.8333 90.4092 29.38C90.4092 28.9667 90.2492 28.6333 89.9292 28.38C89.6226 28.1267 89.1626 27.92 88.5492 27.76L87.5892 27.5C86.6826 27.26 85.9759 26.9 85.4692 26.42C84.9626 25.9267 84.7092 25.3733 84.7092 24.76C84.7092 23.8133 85.0159 23.08 85.6292 22.56C86.2559 22.0267 87.1826 21.76 88.4092 21.76C88.9959 21.76 89.5292 21.8467 90.0092 22.02C90.4892 22.1933 90.9026 22.44 91.2492 22.76C91.5959 23.0667 91.8492 23.4333 92.0092 23.86L90.6092 24.48C90.4359 24.0267 90.1492 23.7 89.7492 23.5C89.3492 23.3 88.8626 23.2 88.2892 23.2C87.6759 23.2 87.1959 23.3333 86.8492 23.6C86.5026 23.8533 86.3292 24.2133 86.3292 24.68C86.3292 24.9467 86.4692 25.2 86.7492 25.44C87.0426 25.6667 87.4692 25.8533 88.0292 26L89.0292 26.26C89.6826 26.42 90.2292 26.66 90.6692 26.98C91.1092 27.2867 91.4426 27.64 91.6692 28.04C91.8959 28.44 92.0092 28.8667 92.0092 29.32C92.0092 29.92 91.8492 30.44 91.5292 30.88C91.2092 31.32 90.7759 31.66 90.2292 31.9C89.6826 32.1267 89.0559 32.24 88.3492 32.24ZM94.2656 32V22H95.8656V32H94.2656ZM95.0856 19.68C94.819 19.68 94.5856 19.58 94.3856 19.38C94.1856 19.18 94.0856 18.9467 94.0856 18.68C94.0856 18.4 94.1856 18.1667 94.3856 17.98C94.5856 17.78 94.819 17.68 95.0856 17.68C95.3656 17.68 95.599 17.78 95.7856 17.98C95.9856 18.1667 96.0856 18.4 96.0856 18.68C96.0856 18.9467 95.9856 19.18 95.7856 19.38C95.599 19.58 95.3656 19.68 95.0856 19.68ZM102.814 36.24C102.174 36.24 101.587 36.1733 101.054 36.04C100.534 35.92 100.087 35.78 99.7141 35.62C99.3541 35.4733 99.0941 35.3467 98.9341 35.24L99.5341 33.94C99.7074 34.0333 99.9541 34.1467 100.274 34.28C100.594 34.4267 100.967 34.5467 101.394 34.64C101.834 34.7467 102.301 34.8 102.794 34.8C103.434 34.8 104.007 34.6667 104.514 34.4C105.034 34.1467 105.434 33.74 105.714 33.18C106.007 32.6333 106.154 31.9267 106.154 31.06V22H107.754V31.04C107.754 32.1867 107.541 33.1467 107.114 33.92C106.687 34.6933 106.101 35.2733 105.354 35.66C104.607 36.0467 103.761 36.24 102.814 36.24ZM102.754 31.92C101.861 31.92 101.074 31.7067 100.394 31.28C99.7141 30.8533 99.1807 30.26 98.7941 29.5C98.4207 28.7267 98.2341 27.8467 98.2341 26.86C98.2341 25.8467 98.4207 24.96 98.7941 24.2C99.1807 23.4267 99.7141 22.8267 100.394 22.4C101.074 21.9733 101.861 21.76 102.754 21.76C103.594 21.76 104.327 21.9733 104.954 22.4C105.581 22.8267 106.067 23.4267 106.414 24.2C106.774 24.96 106.954 25.8467 106.954 26.86C106.954 27.86 106.774 28.74 106.414 29.5C106.067 30.26 105.581 30.8533 104.954 31.28C104.327 31.7067 103.594 31.92 102.754 31.92ZM103.134 30.54C103.721 30.54 104.241 30.38 104.694 30.06C105.147 29.74 105.501 29.3067 105.754 28.76C106.007 28.2 106.134 27.5533 106.134 26.82C106.134 26.1133 106.001 25.4867 105.734 24.94C105.481 24.38 105.127 23.9467 104.674 23.64C104.234 23.32 103.714 23.16 103.114 23.16C102.487 23.16 101.927 23.32 101.434 23.64C100.954 23.9467 100.574 24.38 100.294 24.94C100.027 25.4867 99.8941 26.1133 99.8941 26.82C99.8941 27.5533 100.034 28.2 100.314 28.76C100.594 29.3067 100.974 29.74 101.454 30.06C101.947 30.38 102.507 30.54 103.134 30.54ZM110.552 32V22H112.052L112.152 23.84V32H110.552ZM117.572 32V26.88H119.172V32H117.572ZM117.572 26.88C117.572 25.8933 117.459 25.14 117.232 24.62C117.006 24.1 116.692 23.7467 116.292 23.56C115.892 23.36 115.439 23.26 114.932 23.26C114.052 23.26 113.366 23.5733 112.872 24.2C112.392 24.8133 112.152 25.6867 112.152 26.82H111.372C111.372 25.7667 111.526 24.86 111.832 24.1C112.139 23.34 112.586 22.76 113.172 22.36C113.759 21.96 114.466 21.76 115.292 21.76C116.079 21.76 116.759 21.92 117.332 22.24C117.919 22.5467 118.372 23.04 118.692 23.72C119.026 24.4 119.186 25.2933 119.172 26.4V26.88H117.572ZM126.085 32.24C125.111 32.24 124.251 32.02 123.505 31.58C122.758 31.1267 122.171 30.5067 121.745 29.72C121.331 28.9333 121.125 28.0267 121.125 27C121.125 25.9733 121.331 25.0667 121.745 24.28C122.171 23.4933 122.751 22.88 123.485 22.44C124.231 21.9867 125.085 21.76 126.045 21.76C126.978 21.76 127.785 21.9933 128.465 22.46C129.145 22.9133 129.671 23.5533 130.045 24.38C130.418 25.2067 130.605 26.18 130.605 27.3H122.345L122.745 26.96C122.745 27.76 122.885 28.4467 123.165 29.02C123.458 29.5933 123.865 30.0333 124.385 30.34C124.905 30.6333 125.498 30.78 126.165 30.78C126.871 30.78 127.465 30.6133 127.945 30.28C128.438 29.9467 128.818 29.5067 129.085 28.96L130.465 29.66C130.211 30.18 129.871 30.6333 129.445 31.02C129.031 31.4067 128.538 31.7067 127.965 31.92C127.405 32.1333 126.778 32.24 126.085 32.24ZM122.845 26.28L122.425 25.96H129.325L128.905 26.3C128.905 25.66 128.778 25.1067 128.525 24.64C128.271 24.1733 127.931 23.8133 127.505 23.56C127.078 23.3067 126.585 23.18 126.025 23.18C125.478 23.18 124.958 23.3067 124.465 23.56C123.985 23.8133 123.591 24.1733 123.285 24.64C122.991 25.0933 122.845 25.64 122.845 26.28ZM140.023 32L139.943 30.14V18H141.543V32H140.023ZM136.563 32.24C135.669 32.24 134.883 32.02 134.203 31.58C133.523 31.14 132.989 30.5267 132.603 29.74C132.229 28.94 132.043 28.0267 132.043 27C132.043 25.96 132.229 25.0467 132.603 24.26C132.989 23.4733 133.523 22.86 134.203 22.42C134.883 21.98 135.669 21.76 136.563 21.76C137.403 21.76 138.136 21.98 138.763 22.42C139.403 22.86 139.896 23.4733 140.243 24.26C140.589 25.0467 140.763 25.96 140.763 27C140.763 28.0267 140.589 28.94 140.243 29.74C139.896 30.5267 139.403 31.14 138.763 31.58C138.136 32.02 137.403 32.24 136.563 32.24ZM136.923 30.78C137.509 30.78 138.029 30.62 138.483 30.3C138.936 29.98 139.289 29.5333 139.543 28.96C139.809 28.3867 139.943 27.7333 139.943 27C139.943 26.2667 139.809 25.6133 139.543 25.04C139.289 24.4667 138.936 24.02 138.483 23.7C138.029 23.38 137.503 23.22 136.903 23.22C136.276 23.22 135.716 23.38 135.223 23.7C134.743 24.02 134.363 24.4667 134.083 25.04C133.803 25.6133 133.663 26.2667 133.663 27C133.663 27.7333 133.803 28.3867 134.083 28.96C134.363 29.5333 134.749 29.98 135.243 30.3C135.736 30.62 136.296 30.78 136.923 30.78Z" fill="#1A1A1A"/>
</svg>
