<svg width="108" height="30" viewBox="0 0 108 30" fill="none" xmlns="http://www.w3.org/2000/svg">
<rect width="108" height="30" rx="10" fill="#FFE9E9"/>
<path d="M11.674 21V8.4H15.778C16.594 8.4 17.314 8.562 17.938 8.886C18.574 9.21 19.066 9.66 19.414 10.236C19.774 10.812 19.954 11.472 19.954 12.216C19.954 12.96 19.762 13.62 19.378 14.196C18.994 14.772 18.472 15.228 17.812 15.564C17.152 15.888 16.408 16.05 15.58 16.05H13.204V21H11.674ZM18.784 21L15.76 15.834L16.966 15.042L20.458 21H18.784ZM13.204 14.646H15.994C16.45 14.646 16.858 14.544 17.218 14.34C17.578 14.124 17.866 13.836 18.082 13.476C18.31 13.104 18.424 12.684 18.424 12.216C18.424 11.496 18.172 10.914 17.668 10.47C17.176 10.014 16.534 9.786 15.742 9.786H13.204V14.646ZM26.4696 21.216C25.5936 21.216 24.8196 21.018 24.1476 20.622C23.4756 20.214 22.9476 19.656 22.5636 18.948C22.1916 18.24 22.0056 17.424 22.0056 16.5C22.0056 15.576 22.1916 14.76 22.5636 14.052C22.9476 13.344 23.4696 12.792 24.1296 12.396C24.8016 11.988 25.5696 11.784 26.4336 11.784C27.2736 11.784 27.9996 11.994 28.6116 12.414C29.2236 12.822 29.6976 13.398 30.0336 14.142C30.3696 14.886 30.5376 15.762 30.5376 16.77H23.1036L23.4636 16.464C23.4636 17.184 23.5896 17.802 23.8416 18.318C24.1056 18.834 24.4716 19.23 24.9396 19.506C25.4076 19.77 25.9416 19.902 26.5416 19.902C27.1776 19.902 27.7116 19.752 28.1436 19.452C28.5876 19.152 28.9296 18.756 29.1696 18.264L30.4116 18.894C30.1836 19.362 29.8776 19.77 29.4936 20.118C29.1216 20.466 28.6776 20.736 28.1616 20.928C27.6576 21.12 27.0936 21.216 26.4696 21.216ZM23.5536 15.852L23.1756 15.564H29.3856L29.0076 15.87C29.0076 15.294 28.8936 14.796 28.6656 14.376C28.4376 13.956 28.1316 13.632 27.7476 13.404C27.3636 13.176 26.9196 13.062 26.4156 13.062C25.9236 13.062 25.4556 13.176 25.0116 13.404C24.5796 13.632 24.2256 13.956 23.9496 14.376C23.6856 14.784 23.5536 15.276 23.5536 15.852ZM33.8298 9.894C33.5898 9.894 33.3798 9.804 33.1998 9.624C33.0198 9.444 32.9298 9.234 32.9298 8.994C32.9298 8.73 33.0198 8.514 33.1998 8.346C33.3798 8.166 33.5898 8.076 33.8298 8.076C34.0818 8.076 34.2978 8.166 34.4778 8.346C34.6578 8.514 34.7478 8.73 34.7478 8.994C34.7478 9.234 34.6578 9.444 34.4778 9.624C34.2978 9.804 34.0818 9.894 33.8298 9.894ZM31.8318 24.87C31.3878 24.87 30.8237 24.714 30.1397 24.402L30.6797 23.196C30.9677 23.304 31.2078 23.388 31.3998 23.448C31.6038 23.508 31.7658 23.538 31.8858 23.538C32.7018 23.538 33.1098 23.016 33.1098 21.972V12H34.5498V22.008C34.5498 22.944 34.3218 23.652 33.8658 24.132C33.4098 24.624 32.7318 24.87 31.8318 24.87ZM41.1297 21.216C40.2537 21.216 39.4797 21.018 38.8077 20.622C38.1357 20.214 37.6077 19.656 37.2237 18.948C36.8517 18.24 36.6657 17.424 36.6657 16.5C36.6657 15.576 36.8517 14.76 37.2237 14.052C37.6077 13.344 38.1297 12.792 38.7897 12.396C39.4617 11.988 40.2297 11.784 41.0937 11.784C41.9337 11.784 42.6597 11.994 43.2717 12.414C43.8837 12.822 44.3577 13.398 44.6937 14.142C45.0297 14.886 45.1977 15.762 45.1977 16.77H37.7637L38.1237 16.464C38.1237 17.184 38.2497 17.802 38.5017 18.318C38.7657 18.834 39.1317 19.23 39.5997 19.506C40.0677 19.77 40.6017 19.902 41.2017 19.902C41.8377 19.902 42.3717 19.752 42.8037 19.452C43.2477 19.152 43.5897 18.756 43.8297 18.264L45.0717 18.894C44.8437 19.362 44.5377 19.77 44.1537 20.118C43.7817 20.466 43.3377 20.736 42.8217 20.928C42.3177 21.12 41.7537 21.216 41.1297 21.216ZM38.2137 15.852L37.8357 15.564H44.0457L43.6677 15.87C43.6677 15.294 43.5537 14.796 43.3257 14.376C43.0977 13.956 42.7917 13.632 42.4077 13.404C42.0237 13.176 41.5797 13.062 41.0757 13.062C40.5837 13.062 40.1157 13.176 39.6717 13.404C39.2397 13.632 38.8857 13.956 38.6097 14.376C38.3457 14.784 38.2137 15.276 38.2137 15.852ZM51.0279 21.216C50.1399 21.216 49.3539 21.018 48.6699 20.622C47.9859 20.214 47.4519 19.656 47.0679 18.948C46.6839 18.24 46.4919 17.424 46.4919 16.5C46.4919 15.576 46.6779 14.76 47.0499 14.052C47.4339 13.344 47.9679 12.792 48.6519 12.396C49.3359 11.988 50.1159 11.784 50.9919 11.784C51.8559 11.784 52.6299 11.982 53.3139 12.378C53.9979 12.774 54.5199 13.332 54.8799 14.052L53.5659 14.646C53.3259 14.166 52.9779 13.794 52.5219 13.53C52.0659 13.254 51.5439 13.116 50.9559 13.116C50.3679 13.116 49.8459 13.26 49.3899 13.548C48.9459 13.836 48.5919 14.238 48.3279 14.754C48.0759 15.258 47.9499 15.84 47.9499 16.5C47.9499 17.16 48.0759 17.748 48.3279 18.264C48.5919 18.768 48.9519 19.164 49.4079 19.452C49.8759 19.74 50.4039 19.884 50.9919 19.884C51.5799 19.884 52.1019 19.734 52.5579 19.434C53.0259 19.134 53.3799 18.714 53.6199 18.174L54.9339 18.768C54.5739 19.536 54.0519 20.136 53.3679 20.568C52.6839 21 51.9039 21.216 51.0279 21.216ZM60.1362 21.216C59.2602 21.216 58.5822 20.988 58.1022 20.532C57.6222 20.076 57.3822 19.434 57.3822 18.606V9.192H58.8222V18.462C58.8222 18.918 58.9422 19.272 59.1822 19.524C59.4342 19.764 59.7822 19.884 60.2262 19.884C60.3702 19.884 60.5082 19.866 60.6402 19.83C60.7842 19.782 60.9702 19.674 61.1982 19.506L61.7562 20.676C61.4442 20.88 61.1622 21.018 60.9102 21.09C60.6582 21.174 60.4002 21.216 60.1362 21.216ZM55.8162 13.278V12H61.5222V13.278H55.8162ZM67.4442 21.216C66.5682 21.216 65.7942 21.018 65.1222 20.622C64.4502 20.214 63.9222 19.656 63.5382 18.948C63.1662 18.24 62.9802 17.424 62.9802 16.5C62.9802 15.576 63.1662 14.76 63.5382 14.052C63.9222 13.344 64.4442 12.792 65.1042 12.396C65.7762 11.988 66.5442 11.784 67.4082 11.784C68.2482 11.784 68.9742 11.994 69.5862 12.414C70.1982 12.822 70.6722 13.398 71.0082 14.142C71.3442 14.886 71.5122 15.762 71.5122 16.77H64.0782L64.4382 16.464C64.4382 17.184 64.5642 17.802 64.8162 18.318C65.0802 18.834 65.4462 19.23 65.9142 19.506C66.3822 19.77 66.9162 19.902 67.5162 19.902C68.1522 19.902 68.6862 19.752 69.1182 19.452C69.5622 19.152 69.9042 18.756 70.1442 18.264L71.3862 18.894C71.1582 19.362 70.8522 19.77 70.4682 20.118C70.0962 20.466 69.6522 20.736 69.1362 20.928C68.6322 21.12 68.0682 21.216 67.4442 21.216ZM64.5282 15.852L64.1502 15.564H70.3602L69.9822 15.87C69.9822 15.294 69.8682 14.796 69.6402 14.376C69.4122 13.956 69.1062 13.632 68.7222 13.404C68.3382 13.176 67.8942 13.062 67.3902 13.062C66.8982 13.062 66.4302 13.176 65.9862 13.404C65.5542 13.632 65.2002 13.956 64.9242 14.376C64.6602 14.784 64.5282 15.276 64.5282 15.852ZM79.9884 21L79.9164 19.326V8.4H81.3564V21H79.9884ZM76.8744 21.216C76.0704 21.216 75.3624 21.018 74.7504 20.622C74.1384 20.226 73.6584 19.674 73.3104 18.966C72.9744 18.246 72.8064 17.424 72.8064 16.5C72.8064 15.564 72.9744 14.742 73.3104 14.034C73.6584 13.326 74.1384 12.774 74.7504 12.378C75.3624 11.982 76.0704 11.784 76.8744 11.784C77.6304 11.784 78.2904 11.982 78.8544 12.378C79.4304 12.774 79.8744 13.326 80.1864 14.034C80.4984 14.742 80.6544 15.564 80.6544 16.5C80.6544 17.424 80.4984 18.246 80.1864 18.966C79.8744 19.674 79.4304 20.226 78.8544 20.622C78.2904 21.018 77.6304 21.216 76.8744 21.216ZM77.1984 19.902C77.7264 19.902 78.1944 19.758 78.6024 19.47C79.0104 19.182 79.3284 18.78 79.5564 18.264C79.7964 17.748 79.9164 17.16 79.9164 16.5C79.9164 15.84 79.7964 15.252 79.5564 14.736C79.3284 14.22 79.0104 13.818 78.6024 13.53C78.1944 13.242 77.7204 13.098 77.1804 13.098C76.6164 13.098 76.1124 13.242 75.6684 13.53C75.2364 13.818 74.8944 14.22 74.6424 14.736C74.3904 15.252 74.2644 15.84 74.2644 16.5C74.2644 17.16 74.3904 17.748 74.6424 18.264C74.8944 18.78 75.2424 19.182 75.6864 19.47C76.1304 19.758 76.6344 19.902 77.1984 19.902Z" fill="#D80007"/>
<circle cx="92.5" cy="15" r="3.5" fill="#D70007"/>
</svg>
