<svg width="174" height="50" viewBox="0 0 174 50" fill="none" xmlns="http://www.w3.org/2000/svg">
<rect width="174" height="50" rx="10" fill="#FBDED0"/>
<path d="M22 13C25.1826 13 28.2348 14.2643 30.4853 16.5147C32.7357 18.7652 34 21.8174 34 25C34 28.1826 32.7357 31.2348 30.4853 33.4853C28.2348 35.7357 25.1826 37 22 37L22 25V13Z" fill="#EC692B"/>
<path d="M45.86 32V18H50.42C51.3267 18 52.1267 18.18 52.82 18.54C53.5267 18.9 54.0733 19.4 54.46 20.04C54.86 20.68 55.06 21.4133 55.06 22.24C55.06 23.0667 54.8467 23.8 54.42 24.44C53.9933 25.08 53.4133 25.5867 52.68 25.96C51.9467 26.32 51.12 26.5 50.2 26.5H47.56V32H45.86ZM53.76 32L50.4 26.26L51.74 25.38L55.62 32H53.76ZM47.56 24.94H50.66C51.1667 24.94 51.62 24.8267 52.02 24.6C52.42 24.36 52.74 24.04 52.98 23.64C53.2333 23.2267 53.36 22.76 53.36 22.24C53.36 21.44 53.08 20.7933 52.52 20.3C51.9733 19.7933 51.26 19.54 50.38 19.54H47.56V24.94ZM62.2995 32.24C61.3262 32.24 60.4662 32.02 59.7195 31.58C58.9729 31.1267 58.3862 30.5067 57.9595 29.72C57.5462 28.9333 57.3395 28.0267 57.3395 27C57.3395 25.9733 57.5462 25.0667 57.9595 24.28C58.3862 23.4933 58.9662 22.88 59.6995 22.44C60.4462 21.9867 61.2995 21.76 62.2595 21.76C63.1929 21.76 63.9995 21.9933 64.6795 22.46C65.3595 22.9133 65.8862 23.5533 66.2595 24.38C66.6329 25.2067 66.8195 26.18 66.8195 27.3H58.5595L58.9595 26.96C58.9595 27.76 59.0995 28.4467 59.3795 29.02C59.6729 29.5933 60.0795 30.0333 60.5995 30.34C61.1195 30.6333 61.7129 30.78 62.3795 30.78C63.0862 30.78 63.6795 30.6133 64.1595 30.28C64.6529 29.9467 65.0329 29.5067 65.2995 28.96L66.6795 29.66C66.4262 30.18 66.0862 30.6333 65.6595 31.02C65.2462 31.4067 64.7529 31.7067 64.1795 31.92C63.6195 32.1333 62.9929 32.24 62.2995 32.24ZM59.0595 26.28L58.6395 25.96H65.5395L65.1195 26.3C65.1195 25.66 64.9929 25.1067 64.7395 24.64C64.4862 24.1733 64.1462 23.8133 63.7195 23.56C63.2929 23.3067 62.7995 23.18 62.2395 23.18C61.6929 23.18 61.1729 23.3067 60.6795 23.56C60.1995 23.8133 59.8062 24.1733 59.4995 24.64C59.2062 25.0933 59.0595 25.64 59.0595 26.28ZM72.3375 32.24C71.6042 32.24 70.9642 32.1333 70.4175 31.92C69.8708 31.6933 69.4108 31.4 69.0375 31.04C68.6775 30.68 68.4175 30.2867 68.2575 29.86L69.6575 29.28C69.8842 29.7333 70.2242 30.1 70.6775 30.38C71.1308 30.66 71.6308 30.8 72.1775 30.8C72.8042 30.8 73.3308 30.68 73.7575 30.44C74.1842 30.1867 74.3975 29.8333 74.3975 29.38C74.3975 28.9667 74.2375 28.6333 73.9175 28.38C73.6108 28.1267 73.1508 27.92 72.5375 27.76L71.5775 27.5C70.6708 27.26 69.9642 26.9 69.4575 26.42C68.9508 25.9267 68.6975 25.3733 68.6975 24.76C68.6975 23.8133 69.0042 23.08 69.6175 22.56C70.2442 22.0267 71.1708 21.76 72.3975 21.76C72.9842 21.76 73.5175 21.8467 73.9975 22.02C74.4775 22.1933 74.8908 22.44 75.2375 22.76C75.5842 23.0667 75.8375 23.4333 75.9975 23.86L74.5975 24.48C74.4242 24.0267 74.1375 23.7 73.7375 23.5C73.3375 23.3 72.8508 23.2 72.2775 23.2C71.6642 23.2 71.1842 23.3333 70.8375 23.6C70.4908 23.8533 70.3175 24.2133 70.3175 24.68C70.3175 24.9467 70.4575 25.2 70.7375 25.44C71.0308 25.6667 71.4575 25.8533 72.0175 26L73.0175 26.26C73.6708 26.42 74.2175 26.66 74.6575 26.98C75.0975 27.2867 75.4308 27.64 75.6575 28.04C75.8842 28.44 75.9975 28.8667 75.9975 29.32C75.9975 29.92 75.8375 30.44 75.5175 30.88C75.1975 31.32 74.7642 31.66 74.2175 31.9C73.6708 32.1267 73.0442 32.24 72.3375 32.24ZM82.6139 32.24C81.6272 32.24 80.7539 32.02 79.9939 31.58C79.2339 31.1267 78.6406 30.5067 78.2139 29.72C77.7872 28.9333 77.5739 28.0267 77.5739 27C77.5739 25.9733 77.7806 25.0667 78.1939 24.28C78.6206 23.4933 79.2139 22.88 79.9739 22.44C80.7339 21.9867 81.6006 21.76 82.5739 21.76C83.5339 21.76 84.3939 21.98 85.1539 22.42C85.9139 22.86 86.4939 23.48 86.8939 24.28L85.4339 24.94C85.1672 24.4067 84.7806 23.9933 84.2739 23.7C83.7672 23.3933 83.1872 23.24 82.5339 23.24C81.8806 23.24 81.3006 23.4 80.7939 23.72C80.3006 24.04 79.9072 24.4867 79.6139 25.06C79.3339 25.62 79.1939 26.2667 79.1939 27C79.1939 27.7333 79.3339 28.3867 79.6139 28.96C79.9072 29.52 80.3072 29.96 80.8139 30.28C81.3339 30.6 81.9206 30.76 82.5739 30.76C83.2272 30.76 83.8072 30.5933 84.3139 30.26C84.8339 29.9267 85.2272 29.46 85.4939 28.86L86.9539 29.52C86.5539 30.3733 85.9739 31.04 85.2139 31.52C84.4539 32 83.5872 32.24 82.6139 32.24ZM88.9742 32V18H90.5742V32H88.9742ZM96.0142 32V26.88H97.6142V32H96.0142ZM96.0142 26.88C96.0142 25.8933 95.8942 25.14 95.6542 24.62C95.4276 24.1 95.1142 23.7467 94.7142 23.56C94.3142 23.36 93.8609 23.26 93.3542 23.26C92.4742 23.26 91.7876 23.5733 91.2942 24.2C90.8142 24.8133 90.5742 25.6867 90.5742 26.82H89.7942C89.7942 25.7667 89.9476 24.86 90.2542 24.1C90.5742 23.34 91.0276 22.76 91.6142 22.36C92.2009 21.96 92.9076 21.76 93.7342 21.76C94.5076 21.76 95.1876 21.92 95.7742 22.24C96.3609 22.5467 96.8142 23.04 97.1342 23.72C97.4676 24.4 97.6276 25.2933 97.6142 26.4V26.88H96.0142ZM104.507 32.24C103.533 32.24 102.673 32.02 101.927 31.58C101.18 31.1267 100.593 30.5067 100.167 29.72C99.7532 28.9333 99.5466 28.0267 99.5466 27C99.5466 25.9733 99.7532 25.0667 100.167 24.28C100.593 23.4933 101.173 22.88 101.907 22.44C102.653 21.9867 103.507 21.76 104.467 21.76C105.4 21.76 106.207 21.9933 106.887 22.46C107.567 22.9133 108.093 23.5533 108.467 24.38C108.84 25.2067 109.027 26.18 109.027 27.3H100.767L101.167 26.96C101.167 27.76 101.307 28.4467 101.587 29.02C101.88 29.5933 102.287 30.0333 102.807 30.34C103.327 30.6333 103.92 30.78 104.587 30.78C105.293 30.78 105.887 30.6133 106.367 30.28C106.86 29.9467 107.24 29.5067 107.507 28.96L108.887 29.66C108.633 30.18 108.293 30.6333 107.867 31.02C107.453 31.4067 106.96 31.7067 106.387 31.92C105.827 32.1333 105.2 32.24 104.507 32.24ZM101.267 26.28L100.847 25.96H107.747L107.327 26.3C107.327 25.66 107.2 25.1067 106.947 24.64C106.693 24.1733 106.353 23.8133 105.927 23.56C105.5 23.3067 105.007 23.18 104.447 23.18C103.9 23.18 103.38 23.3067 102.887 23.56C102.407 23.8133 102.013 24.1733 101.707 24.64C101.413 25.0933 101.267 25.64 101.267 26.28ZM118.445 32L118.365 30.14V18H119.965V32H118.445ZM114.985 32.24C114.091 32.24 113.305 32.02 112.625 31.58C111.945 31.14 111.411 30.5267 111.025 29.74C110.651 28.94 110.465 28.0267 110.465 27C110.465 25.96 110.651 25.0467 111.025 24.26C111.411 23.4733 111.945 22.86 112.625 22.42C113.305 21.98 114.091 21.76 114.985 21.76C115.825 21.76 116.558 21.98 117.185 22.42C117.825 22.86 118.318 23.4733 118.665 24.26C119.011 25.0467 119.185 25.96 119.185 27C119.185 28.0267 119.011 28.94 118.665 29.74C118.318 30.5267 117.825 31.14 117.185 31.58C116.558 32.02 115.825 32.24 114.985 32.24ZM115.345 30.78C115.931 30.78 116.451 30.62 116.905 30.3C117.358 29.98 117.711 29.5333 117.965 28.96C118.231 28.3867 118.365 27.7333 118.365 27C118.365 26.2667 118.231 25.6133 117.965 25.04C117.711 24.4667 117.358 24.02 116.905 23.7C116.451 23.38 115.925 23.22 115.325 23.22C114.698 23.22 114.138 23.38 113.645 23.7C113.165 24.02 112.785 24.4667 112.505 25.04C112.225 25.6133 112.085 26.2667 112.085 27C112.085 27.7333 112.225 28.3867 112.505 28.96C112.785 29.5333 113.171 29.98 113.665 30.3C114.158 30.62 114.718 30.78 115.345 30.78ZM129.623 32L129.523 30.16V22H131.123V32H129.623ZM122.503 27.12V22H124.103V27.12H122.503ZM124.103 27.12C124.103 28.1067 124.217 28.86 124.443 29.38C124.67 29.9 124.983 30.26 125.383 30.46C125.797 30.6467 126.257 30.74 126.763 30.74C127.63 30.74 128.303 30.4267 128.783 29.8C129.277 29.1733 129.523 28.3 129.523 27.18H130.303C130.303 28.2333 130.15 29.14 129.843 29.9C129.537 30.66 129.09 31.24 128.503 31.64C127.93 32.04 127.223 32.24 126.383 32.24C125.61 32.24 124.93 32.0867 124.343 31.78C123.757 31.46 123.303 30.96 122.983 30.28C122.663 29.5867 122.503 28.6933 122.503 27.6V27.12H124.103ZM133.916 32V18H135.516V32H133.916ZM142.69 32.24C141.717 32.24 140.857 32.02 140.11 31.58C139.363 31.1267 138.777 30.5067 138.35 29.72C137.937 28.9333 137.73 28.0267 137.73 27C137.73 25.9733 137.937 25.0667 138.35 24.28C138.777 23.4933 139.357 22.88 140.09 22.44C140.837 21.9867 141.69 21.76 142.65 21.76C143.583 21.76 144.39 21.9933 145.07 22.46C145.75 22.9133 146.277 23.5533 146.65 24.38C147.023 25.2067 147.21 26.18 147.21 27.3H138.95L139.35 26.96C139.35 27.76 139.49 28.4467 139.77 29.02C140.063 29.5933 140.47 30.0333 140.99 30.34C141.51 30.6333 142.103 30.78 142.77 30.78C143.477 30.78 144.07 30.6133 144.55 30.28C145.043 29.9467 145.423 29.5067 145.69 28.96L147.07 29.66C146.817 30.18 146.477 30.6333 146.05 31.02C145.637 31.4067 145.143 31.7067 144.57 31.92C144.01 32.1333 143.383 32.24 142.69 32.24ZM139.45 26.28L139.03 25.96H145.93L145.51 26.3C145.51 25.66 145.383 25.1067 145.13 24.64C144.877 24.1733 144.537 23.8133 144.11 23.56C143.683 23.3067 143.19 23.18 142.63 23.18C142.083 23.18 141.563 23.3067 141.07 23.56C140.59 23.8133 140.197 24.1733 139.89 24.64C139.597 25.0933 139.45 25.64 139.45 26.28ZM156.628 32L156.548 30.14V18H158.148V32H156.628ZM153.168 32.24C152.275 32.24 151.488 32.02 150.808 31.58C150.128 31.14 149.595 30.5267 149.208 29.74C148.835 28.94 148.648 28.0267 148.648 27C148.648 25.96 148.835 25.0467 149.208 24.26C149.595 23.4733 150.128 22.86 150.808 22.42C151.488 21.98 152.275 21.76 153.168 21.76C154.008 21.76 154.741 21.98 155.368 22.42C156.008 22.86 156.501 23.4733 156.848 24.26C157.195 25.0467 157.368 25.96 157.368 27C157.368 28.0267 157.195 28.94 156.848 29.74C156.501 30.5267 156.008 31.14 155.368 31.58C154.741 32.02 154.008 32.24 153.168 32.24ZM153.528 30.78C154.115 30.78 154.635 30.62 155.088 30.3C155.541 29.98 155.895 29.5333 156.148 28.96C156.415 28.3867 156.548 27.7333 156.548 27C156.548 26.2667 156.415 25.6133 156.148 25.04C155.895 24.4667 155.541 24.02 155.088 23.7C154.635 23.38 154.108 23.22 153.508 23.22C152.881 23.22 152.321 23.38 151.828 23.7C151.348 24.02 150.968 24.4667 150.688 25.04C150.408 25.6133 150.268 26.2667 150.268 27C150.268 27.7333 150.408 28.3867 150.688 28.96C150.968 29.5333 151.355 29.98 151.848 30.3C152.341 30.62 152.901 30.78 153.528 30.78Z" fill="#1A1A1A"/>
</svg>
