<svg width="20" height="20" viewBox="0 0 20 20" fill="none" xmlns="http://www.w3.org/2000/svg">
<path d="M9.18888 7.74128L1.63234 15.3344C1.43196 15.5333 1.27293 15.7699 1.1644 16.0305C1.05587 16.2911 1 16.5706 1 16.853C1 17.1353 1.05587 17.4148 1.1644 17.6754C1.27293 17.9361 1.43196 18.1726 1.63234 18.3715C2.037 18.774 2.58456 19 3.15532 19C3.72608 19 4.27363 18.774 4.67829 18.3715L12.2594 10.8121M16.0535 13.1593L18.7003 10.5122C18.8922 10.3202 19 10.0599 19 9.78851C19 9.51708 18.8922 9.25677 18.7003 9.06481L10.936 1.2997C10.7441 1.1078 10.4838 1 10.2124 1C9.94099 1 9.68071 1.1078 9.48877 1.2997L6.84199 3.94676C6.65011 4.13871 6.54232 4.39903 6.54232 4.67045C6.54232 4.94188 6.65011 5.20219 6.84199 5.39414L14.6063 13.1593C14.7982 13.3512 15.0585 13.459 15.3299 13.459C15.6013 13.459 15.8616 13.3512 16.0535 13.1593Z" stroke="black" stroke-width="1.7" stroke-linecap="round" stroke-linejoin="round"/>
</svg>
