<svg width="141" height="50" viewBox="0 0 141 50" fill="none" xmlns="http://www.w3.org/2000/svg">
<rect width="141" height="50" rx="10" fill="#FCEECF"/>
<path d="M30 13C32.3734 13 34.6935 13.7038 36.6668 15.0224C38.6402 16.3409 40.1783 18.2151 41.0866 20.4078C41.9948 22.6005 42.2324 25.0133 41.7694 27.3411C41.3064 29.6689 40.1635 31.8071 38.4853 33.4853C36.8071 35.1635 34.6689 36.3064 32.3411 36.7694C30.0133 37.2324 27.6005 36.9948 25.4078 36.0866C23.2151 35.1783 21.3409 33.6402 20.0224 31.6668C18.7038 29.6935 18 27.3734 18 25H30V13Z" fill="#F1B226"/>
<path d="M58.34 32.24C57.5667 32.24 56.88 32.16 56.28 32C55.68 31.8267 55.16 31.5933 54.72 31.3C54.28 30.9933 53.92 30.66 53.64 30.3C53.36 29.9267 53.1533 29.5333 53.02 29.12L54.64 28.56C54.84 29.1467 55.24 29.66 55.84 30.1C56.4533 30.5267 57.2 30.74 58.08 30.74C59.16 30.74 60.0067 30.5267 60.62 30.1C61.2333 29.6733 61.54 29.1067 61.54 28.4C61.54 27.7467 61.2667 27.22 60.72 26.82C60.1733 26.4067 59.4533 26.0867 58.56 25.86L57.02 25.46C56.3933 25.3 55.8133 25.0667 55.28 24.76C54.76 24.44 54.34 24.04 54.02 23.56C53.7133 23.0667 53.56 22.48 53.56 21.8C53.56 20.5333 53.9667 19.5467 54.78 18.84C55.6067 18.12 56.7933 17.76 58.34 17.76C59.26 17.76 60.0533 17.9133 60.72 18.22C61.3867 18.5133 61.9267 18.8933 62.34 19.36C62.7667 19.8133 63.0667 20.3067 63.24 20.84L61.64 21.4C61.3867 20.7333 60.96 20.2133 60.36 19.84C59.76 19.4533 59.0333 19.26 58.18 19.26C57.2867 19.26 56.5733 19.48 56.04 19.92C55.52 20.3467 55.26 20.9333 55.26 21.68C55.26 22.32 55.4667 22.8133 55.88 23.16C56.2933 23.4933 56.8333 23.74 57.5 23.9L59.04 24.28C60.4 24.6 61.44 25.1333 62.16 25.88C62.8933 26.6133 63.26 27.4067 63.26 28.26C63.26 28.9933 63.0733 29.6667 62.7 30.28C62.3267 30.88 61.7733 31.36 61.04 31.72C60.32 32.0667 59.42 32.24 58.34 32.24ZM69.4452 32.24C68.4718 32.24 67.7185 31.9867 67.1852 31.48C66.6518 30.9733 66.3852 30.26 66.3852 29.34V18.88H67.9852V29.18C67.9852 29.6867 68.1185 30.08 68.3852 30.36C68.6652 30.6267 69.0518 30.76 69.5452 30.76C69.7052 30.76 69.8585 30.74 70.0052 30.7C70.1652 30.6467 70.3718 30.5267 70.6252 30.34L71.2452 31.64C70.8985 31.8667 70.5852 32.02 70.3052 32.1C70.0252 32.1933 69.7385 32.24 69.4452 32.24ZM64.6452 23.42V22H70.9852V23.42H64.6452ZM79.3452 32L79.2652 30.36V26.72C79.2652 25.9333 79.1785 25.2867 79.0052 24.78C78.8318 24.26 78.5585 23.8667 78.1852 23.6C77.8118 23.3333 77.3252 23.2 76.7252 23.2C76.1785 23.2 75.7052 23.3133 75.3052 23.54C74.9185 23.7533 74.5985 24.1 74.3452 24.58L72.9052 24.02C73.1585 23.5533 73.4652 23.1533 73.8252 22.82C74.1852 22.4733 74.6052 22.2133 75.0852 22.04C75.5652 21.8533 76.1118 21.76 76.7252 21.76C77.6585 21.76 78.4252 21.9467 79.0252 22.32C79.6385 22.68 80.0985 23.22 80.4052 23.94C80.7118 24.6467 80.8585 25.5267 80.8452 26.58L80.8252 32H79.3452ZM76.3452 32.24C75.1718 32.24 74.2518 31.9733 73.5852 31.44C72.9318 30.8933 72.6052 30.14 72.6052 29.18C72.6052 28.1667 72.9385 27.3933 73.6052 26.86C74.2852 26.3133 75.2318 26.04 76.4452 26.04H79.3052V27.38H76.8052C75.8718 27.38 75.2052 27.5333 74.8052 27.84C74.4185 28.1467 74.2252 28.5867 74.2252 29.16C74.2252 29.68 74.4185 30.0933 74.8052 30.4C75.1918 30.6933 75.7318 30.84 76.4252 30.84C76.9985 30.84 77.4985 30.72 77.9252 30.48C78.3518 30.2267 78.6785 29.8733 78.9052 29.42C79.1452 28.9533 79.2652 28.4067 79.2652 27.78H79.9452C79.9452 29.14 79.6385 30.2267 79.0252 31.04C78.4118 31.84 77.5185 32.24 76.3452 32.24ZM84.2605 26.58C84.2605 25.5 84.4671 24.6267 84.8805 23.96C85.2938 23.28 85.8205 22.78 86.4605 22.46C87.1138 22.1267 87.8005 21.96 88.5205 21.96V23.46C87.9338 23.46 87.3671 23.56 86.8205 23.76C86.2871 23.9467 85.8471 24.26 85.5005 24.7C85.1538 25.14 84.9805 25.74 84.9805 26.5L84.2605 26.58ZM83.3805 32V22H84.9805V32H83.3805ZM93.8983 32.24C92.9249 32.24 92.1716 31.9867 91.6383 31.48C91.1049 30.9733 90.8383 30.26 90.8383 29.34V18.88H92.4383V29.18C92.4383 29.6867 92.5716 30.08 92.8383 30.36C93.1183 30.6267 93.5049 30.76 93.9983 30.76C94.1583 30.76 94.3116 30.74 94.4583 30.7C94.6183 30.6467 94.8249 30.5267 95.0783 30.34L95.6983 31.64C95.3516 31.8667 95.0383 32.02 94.7583 32.1C94.4783 32.1933 94.1916 32.24 93.8983 32.24ZM89.0983 23.42V22H95.4383V23.42H89.0983ZM102.018 32.24C101.045 32.24 100.185 32.02 99.4383 31.58C98.6916 31.1267 98.1049 30.5067 97.6783 29.72C97.2649 28.9333 97.0583 28.0267 97.0583 27C97.0583 25.9733 97.2649 25.0667 97.6783 24.28C98.1049 23.4933 98.6849 22.88 99.4183 22.44C100.165 21.9867 101.018 21.76 101.978 21.76C102.912 21.76 103.718 21.9933 104.398 22.46C105.078 22.9133 105.605 23.5533 105.978 24.38C106.352 25.2067 106.538 26.18 106.538 27.3H98.2783L98.6783 26.96C98.6783 27.76 98.8183 28.4467 99.0983 29.02C99.3916 29.5933 99.7983 30.0333 100.318 30.34C100.838 30.6333 101.432 30.78 102.098 30.78C102.805 30.78 103.398 30.6133 103.878 30.28C104.372 29.9467 104.752 29.5067 105.018 28.96L106.398 29.66C106.145 30.18 105.805 30.6333 105.378 31.02C104.965 31.4067 104.472 31.7067 103.898 31.92C103.338 32.1333 102.712 32.24 102.018 32.24ZM98.7783 26.28L98.3583 25.96H105.258L104.838 26.3C104.838 25.66 104.712 25.1067 104.458 24.64C104.205 24.1733 103.865 23.8133 103.438 23.56C103.012 23.3067 102.518 23.18 101.958 23.18C101.412 23.18 100.892 23.3067 100.398 23.56C99.9183 23.8133 99.5249 24.1733 99.2183 24.64C98.9249 25.0933 98.7783 25.64 98.7783 26.28ZM115.956 32L115.876 30.14V18H117.476V32H115.956ZM112.496 32.24C111.603 32.24 110.816 32.02 110.136 31.58C109.456 31.14 108.923 30.5267 108.536 29.74C108.163 28.94 107.976 28.0267 107.976 27C107.976 25.96 108.163 25.0467 108.536 24.26C108.923 23.4733 109.456 22.86 110.136 22.42C110.816 21.98 111.603 21.76 112.496 21.76C113.336 21.76 114.07 21.98 114.696 22.42C115.336 22.86 115.83 23.4733 116.176 24.26C116.523 25.0467 116.696 25.96 116.696 27C116.696 28.0267 116.523 28.94 116.176 29.74C115.83 30.5267 115.336 31.14 114.696 31.58C114.07 32.02 113.336 32.24 112.496 32.24ZM112.856 30.78C113.443 30.78 113.963 30.62 114.416 30.3C114.87 29.98 115.223 29.5333 115.476 28.96C115.743 28.3867 115.876 27.7333 115.876 27C115.876 26.2667 115.743 25.6133 115.476 25.04C115.223 24.4667 114.87 24.02 114.416 23.7C113.963 23.38 113.436 23.22 112.836 23.22C112.21 23.22 111.65 23.38 111.156 23.7C110.676 24.02 110.296 24.4667 110.016 25.04C109.736 25.6133 109.596 26.2667 109.596 27C109.596 27.7333 109.736 28.3867 110.016 28.96C110.296 29.5333 110.683 29.98 111.176 30.3C111.67 30.62 112.23 30.78 112.856 30.78Z" fill="#1A1A1A"/>
</svg>
